<?xml version="1.0" encoding="UTF-8"?>
<svg width="22px" height="14px" viewBox="0 0 22 14" version="1.1" xmlns="http://www.w3.org/2000/svg" xmlns:xlink="http://www.w3.org/1999/xlink">
    <!-- Generator: Sketch 48.2 (47327) - http://www.bohemiancoding.com/sketch -->
    <title>Page 1</title>
    <desc>Created with Sketch.</desc>
    <defs></defs>
    <g id="Homepage" stroke="none" stroke-width="1" fill="none" fill-rule="evenodd" transform="translate(-1105.000000, -2571.000000)">
        <path d="M1106.57143,2571 C1105.70121,2571 1105,2571.69412 1105,2572.55556 L1105,2583.44444 C1105,2584.30588 1105.70121,2585 1106.57143,2585 L1125.42857,2585 C1126.29879,2585 1127,2584.30588 1127,2583.44444 L1127,2572.55556 C1127,2571.69412 1126.29879,2571 1125.42857,2571 L1106.57143,2571 Z M1108.45443,2574.00249 C1108.61802,2573.98732 1108.75127,2574.04237 1108.86169,2574.14294 L1115.75511,2580.58594 C1116.18758,2580.98964 1116.80682,2580.98964 1117.24066,2580.58594 L1124.1501,2574.14294 C1124.34844,2573.95697 1124.69299,2573.97461 1124.87294,2574.17999 C1125.05254,2574.38537 1125.03516,2574.74249 1124.83681,2574.92882 L1120.93088,2578.57625 L1124.82897,2582.07477 C1125.03277,2582.25651 1125.05936,2582.61363 1124.88214,2582.82465 C1124.70629,2583.03533 1124.36037,2583.06038 1124.15793,2582.87688 L1120.16407,2579.28732 L1117.92772,2581.37994 C1117.11832,2582.13511 1115.87745,2582.12841 1115.06805,2581.37147 L1112.83954,2579.28732 L1108.85385,2582.87688 C1108.65142,2583.06038 1108.3055,2583.03533 1108.12965,2582.82465 C1107.95379,2582.61363 1107.97901,2582.25651 1108.18281,2582.07477 L1112.07273,2578.57625 L1108.17498,2574.92882 C1108.0257,2574.79507 1107.96334,2574.56605 1108.02161,2574.37055 C1108.08023,2574.1747 1108.25745,2574.02437 1108.45443,2574.00249 Z" id="Page-1" fill="#B1D2DB"></path>
    </g>
</svg>